<svg xmlns="http://www.w3.org/2000/svg"
 width="500" height="500" viewBox="310 300 630 640"
 preserveAspectRatio="xMidYMid meet">
<metadata>
Created by potrace 1.16, written by Peter Selinger 2001-2019
</metadata>
<rect width="12540" height="12540" fill="#080808"/>
<g transform="translate(0.000000,1254.000000) scale(0.100000,-0.100000)"
fill="#c8a96e" stroke="none">
<path d="M0 6270 l0 -6270 6270 0 6270 0 0 6270 0 6270 -6270 0 -6270 0 0
-6270z m5812 2476 c19 -29 -21 -121 -121 -280 -34 -53 -61 -98 -61 -100 0 -2
-30 -55 -66 -117 -63 -108 -343 -593 -462 -799 -154 -268 -457 -838 -449 -846
10 -10 385 172 632 306 379 207 788 479 1245 825 299 226 525 392 623 458 62
42 198 107 222 107 31 0 60 -35 49 -59 -5 -10 -91 -85 -192 -166 -101 -80
-191 -153 -200 -160 -113 -94 -498 -391 -642 -495 -101 -73 -452 -307 -572
-381 -238 -147 -723 -397 -1029 -530 l-146 -63 74 -118 c135 -219 179 -282
330 -483 287 -381 541 -651 770 -818 53 -39 53 -39 82 -15 140 110 637 593
1001 971 75 78 75 78 20 72 -330 -38 -841 -170 -1041 -270 -115 -58 -114 -6 1
98 107 96 244 159 490 223 165 43 523 98 694 106 53 3 61 6 89 38 16 19 85 94
152 165 106 113 333 361 490 534 28 31 151 166 275 301 123 135 240 263 260
285 304 335 546 583 594 607 79 40 109 -13 67 -119 -10 -27 -47 -113 -81 -193
-34 -80 -79 -188 -100 -240 -21 -52 -53 -129 -70 -170 -59 -140 -168 -424
-252 -655 -41 -115 -208 -611 -208 -620 0 -1 20 -5 44 -8 121 -17 430 -137
531 -207 112 -78 135 -142 28 -77 -88 53 -231 106 -398 147 -255 64 -225 75
-272 -97 -182 -656 -246 -1161 -167 -1314 33 -65 -25 -69 -83 -7 -55 59 -91
272 -78 468 14 219 76 566 159 890 19 74 34 135 33 136 -19 17 -475 24 -844
12 -14 0 -46 -27 -90 -77 -221 -249 -799 -821 -1055 -1047 -43 -37 -78 -70
-78 -73 0 -7 171 -110 260 -158 278 -147 577 -229 875 -240 140 -5 181 -3 234
11 72 18 95 10 63 -22 -34 -34 -150 -54 -344 -60 -380 -10 -686 65 -1079 264
-80 41 -150 74 -153 74 -4 0 -67 -49 -139 -109 -445 -366 -843 -595 -1214
-700 -399 -113 -764 -89 -956 62 -49 38 -36 58 20 34 95 -41 164 -52 333 -51
394 1 778 143 1288 478 201 132 509 362 508 381 -1 16 -210 168 -241 174 -20
5 -31 14 -35 31 -3 13 -33 48 -67 76 -59 50 -222 223 -334 354 -140 164 -321
421 -461 654 -43 71 -79 130 -81 132 -3 4 -16 -21 -178 -346 -123 -247 -176
-360 -349 -730 -140 -301 -169 -372 -189 -469 -19 -87 -42 -106 -84 -67 -88
82 -10 426 201 886 100 219 395 802 607 1200 45 85 138 259 205 385 277 519
673 1226 762 1357 67 101 177 222 222 245 63 33 111 36 128 9z"/>
<path d="M8443 7467 c-115 -127 -263 -293 -329 -367 -511 -577 -616 -695 -685
-772 -44 -47 -79 -89 -79 -92 0 -3 39 -6 88 -6 127 0 398 -17 542 -34 69 -8
128 -12 131 -8 3 4 14 36 23 71 64 233 392 1142 490 1355 20 44 35 81 33 82
-2 2 -98 -101 -214 -229z"/>
</g>
</svg>
